<?xml version="1.0" standalone="no"?><svg xmlns:xlink="http://www.w3.org/1999/xlink" xmlns="http://www.w3.org/2000/svg" viewBox="0 0 1000 1071.4618466412" preserveAspectRatio="xMaxYMax slice"><g transform="scale(2.7403116282383633)"><rect x="0" y="0" width="364.93333333333334" height="391" fill="#ffffff"/><circle cx="13.035" cy="13.035" r="2.605" fill="#ffabbf"/><path d="M 36.49 10.43 A 5.21 5.21 0 0 1  41.7 15.64 L 36.49 10.43 A 5.21 5.21 0 0 0 41.7 15.64" fill="#9892ef"/><rect x="88.62666666666667" y="10.426666666666668" width="5.213333333333331" height="5.213333333333331" fill="#ffffff"/><path d="M 88.63 10.43 A 2.61 2.61 0 0 1  91.24 13.04 L 88.63 10.43 A 2.61 2.61 0 0 0 91.24 13.04" fill="#6861e8"/><rect x="114.69333333333333" y="10.426666666666668" width="5.213333333333331" height="5.213333333333331" fill="#ffffff"/><circle cx="115.995" cy="14.334999999999999" r="1.305" fill="#d3d0f8"/><circle cx="118.605" cy="14.334999999999999" r="1.305" fill="#ff557d"/><rect x="271.09333333333336" y="10.426666666666668" width="5.213333333333331" height="5.213333333333331" fill="#ffffff"/><path d="M 273.7 10.43 A 2.61 2.61 0 0 1 276.31 13.04 L 273.7 13.04" fill="#dad9f9"/><path d="M 36.21 36.21 A 5.79 5.79 0 0 1  42 42 L 36.21 36.21 A 5.79 5.79 0 0 0 42 42" fill="#ceccf8"/><rect x="61.98802285714286" y="35.92135619047619" width="6.357287619047614" height="6.357287619047614" fill="#ffffff"/><rect x="243.5967238095238" y="35.06339047619048" width="8.073219047619045" height="8.073219047619045" fill="#ffffff"/><path d="M 322.65 42.28 A 6.36 6.36 0 0 1  329.01 35.92 L 329.01 42.28" fill="#ff7999"/><rect x="35.92135619047619" y="61.98802285714286" width="6.357287619047618" height="6.357287619047618" fill="#ffffff"/><path d="M 35.92 65.17 A 3.18 3.18 0 0 1  39.1 61.99 L 35.92 65.17 A 3.18 3.18 0 0 0 39.1 61.99" fill="#c0bdf5"/><path d="M 137.9 70.63 A 10.93 10.93 0 0 1  148.83 59.7 L 137.9 70.63 A 10.93 10.93 0 0 0 148.83 59.7" fill="#ff7394"/><circle cx="169.435" cy="65.16499999999999" r="5.945" fill="#ffd5df"/><circle cx="195.505" cy="65.16499999999999" r="5.945" fill="#f9f9fe"/><rect x="213.9552" y="83.62186666666668" width="15.222933333333332" height="15.222933333333332" fill="#ffffff"/><path d="M 213.96 83.62 A 7.61 7.61 0 0 1  221.57000000000002 91.23 L 213.96 83.62 A 7.61 7.61 0 0 0 221.57000000000002 91.23" fill="#ff3f6d"/><path d="M 221.57 91.23 A 7.61 7.61 0 0 0 229.18 83.62 L 221.57 83.62" fill="#ffafc2"/><path d="M 294.59 86.05 A 10.36 10.36 0 0 0 304.95 96.41 L 304.95 86.05" fill="#d6d4f9"/><rect x="10.426666666666668" y="114.69333333333333" width="5.213333333333331" height="5.213333333333331" fill="#ffffff"/><rect x="239.30689523809522" y="108.97356190476191" width="16.652876190476192" height="16.652876190476192" fill="#ffffff"/><circle cx="243.475" cy="113.135" r="4.165" fill="#ff547d"/><path d="M 239.31 125.63 A 8.33 8.33 0 0 1  247.64000000000001 117.3 L 239.31 125.63 A 8.33 8.33 0 0 0 247.64000000000001 117.3" fill="#7f79eb"/><path d="M 247.63 125.63 A 8.33 8.33 0 0 1  255.96 117.3 L 255.96 125.63" fill="#8781ed"/><rect x="348.14937904761905" y="113.54937904761904" width="7.501241904761905" height="7.501241904761905" fill="#ffffff"/><path d="M 351.9 113.55 A 3.75 3.75 0 0 0 355.65 117.3 L 355.65 113.55" fill="#ffdce5"/><path d="M 348.15 121.05 A 3.75 3.75 0 0 1  351.9 117.3 L 348.15 121.05 A 3.75 3.75 0 0 0 351.9 117.3" fill="#cdcaf7"/><path d="M 351.9 121.05 A 3.75 3.75 0 0 1  355.65 117.3 L 351.9 121.05 A 3.75 3.75 0 0 0 355.65 117.3" fill="#bab6f4"/><circle cx="39.095" cy="143.365" r="4.035" fill="#bab7f4"/><rect x="59.700114285714285" y="137.9001142857143" width="10.933104761904762" height="10.933104761904762" fill="#ffffff"/><circle cx="67.905" cy="140.63500000000002" r="2.735" fill="#675fe8"/><path d="M 108.97 135.04 A 16.65 16.65 0 0 1  125.62 151.69 L 108.97 135.04 A 16.65 16.65 0 0 0 125.62 151.69" fill="#ff7797"/><rect x="158.48533333333333" y="132.41866666666667" width="21.896" height="21.896" fill="#ffffff"/><path d="M 237.88 133.61 A 19.51 19.51 0 0 1 257.39 153.12 L 237.88 153.12" fill="#ff3c6a"/><rect x="265.3735619047619" y="135.04022857142857" width="16.65287619047619" height="16.65287619047619" fill="#ffffff"/><circle cx="299.765" cy="143.365" r="6.895" fill="#ff98b0"/><rect x="236.44700952380953" y="158.24700952380954" width="22.372647619047616" height="22.372647619047616" fill="#ffffff"/><path d="M 236.45 169.44 A 11.19 11.19 0 0 0 247.64 158.25 L 236.45 158.25" fill="#e9e8fc"/><circle cx="253.225" cy="163.845" r="5.595" fill="#5148e4"/><rect x="347.5774019047619" y="165.11073523809523" width="8.645196190476192" height="8.645196190476192" fill="#ffffff"/><path d="M 351.9 169.43 A 4.32 4.32 0 0 1 356.21999999999997 173.75 L 351.9 173.75" fill="#ff436f"/><path d="M 10.43 192.89 A 5.21 5.21 0 0 1  15.64 198.1 L 10.43 192.89 A 5.21 5.21 0 0 0 15.64 198.1" fill="#544be5"/><rect x="107.54361904761905" y="185.74361904761906" width="19.512761904761902" height="19.512761904761902" fill="#ffffff"/><path d="M 117.3 185.74 A 9.76 9.76 0 0 1  127.06 195.5 L 117.3 185.74 A 9.76 9.76 0 0 0 127.06 195.5" fill="#ff7495"/><path d="M 107.54 205.26 A 9.76 9.76 0 0 1  117.30000000000001 195.5 L 107.54 205.26 A 9.76 9.76 0 0 0 117.30000000000001 195.5" fill="#ffb1c3"/><path d="M 156.4 208.54 A 26.07 26.07 0 0 0 182.47 182.47 L 156.4 182.47" fill="#fff0f3"/><path d="M 236.09 207.05 A 23.09 23.09 0 0 1  259.18 183.96 L 259.18 207.05" fill="#bfbbf5"/><path d="M 10.43 224.17000000000002 A 5.21 5.21 0 0 1  15.64 218.96 L 10.43 224.17000000000002 A 5.21 5.21 0 0 0 15.64 218.96" fill="#ffb0c3"/><rect x="58.98514285714286" y="215.38514285714285" width="12.363047619047617" height="12.363047619047617" fill="#ffffff"/><path d="M 58.99 215.39 A 6.18 6.18 0 0 0 65.17 221.57 L 65.17 215.39" fill="#544ce5"/><circle cx="68.26" cy="224.66" r="3.09" fill="#c1bef5"/><circle cx="91.23" cy="221.57" r="7.97" fill="#ffdde5"/><circle cx="143.36499999999998" cy="221.565" r="11.545" fill="#ffaabe"/><path d="M 182.47 208.53 A 26.07 26.07 0 0 1 208.54 234.6 L 182.47 234.6" fill="#fff2f5"/><circle cx="273.695" cy="221.565" r="9.755" fill="#ecebfc"/><circle cx="39.105000000000004" cy="247.635" r="4.325" fill="#ff4974"/><rect x="319.79480380952384" y="241.5948038095238" width="12.077059047619045" height="12.077059047619045" fill="#ffffff"/><path d="M 319.79 241.59 A 6.04 6.04 0 0 1  325.83000000000004 247.63 L 319.79 241.59 A 6.04 6.04 0 0 0 325.83000000000004 247.63" fill="#a7a2f1"/><circle cx="351.905" cy="247.635" r="4.325" fill="#dcdafa"/><rect x="59.700114285714285" y="268.23344761904764" width="10.933104761904762" height="10.933104761904762" fill="#ffffff"/><path d="M 65.17 273.70000000000005 A 5.47 5.47 0 0 0 70.64 268.23 L 65.17 268.23" fill="#ffc2d1"/><path d="M 65.17 279.17 A 5.47 5.47 0 0 1  70.64 273.7 L 65.17 279.17 A 5.47 5.47 0 0 0 70.64 273.7" fill="#645ce7"/><rect x="84.3368380952381" y="266.8035047619048" width="13.792990476190477" height="13.792990476190477" fill="#ffffff"/><rect x="108.97356190476191" y="265.3735619047619" width="16.65287619047619" height="16.65287619047619" fill="#ffffff"/><path d="M 237.88 283.45 A 19.51 19.51 0 0 1  257.39 263.94 L 237.88 283.45 A 19.51 19.51 0 0 0 257.39 263.94" fill="#7d77eb"/><rect x="265.3735619047619" y="265.3735619047619" width="16.65287619047619" height="16.65287619047619" fill="#ffffff"/><circle cx="269.535" cy="269.535" r="4.165" fill="#9590ef"/><path d="M 273.7 265.37 A 8.33 8.33 0 0 1  282.03 273.7 L 273.7 265.37 A 8.33 8.33 0 0 0 282.03 273.7" fill="#a6a2f1"/><circle cx="299.765" cy="273.695" r="6.895" fill="#7972ea"/><rect x="320.36678095238096" y="268.23344761904764" width="10.933104761904762" height="10.933104761904762" fill="#ffffff"/><path d="M 320.37 279.17 A 5.47 5.47 0 0 0 325.84000000000003 273.7 L 320.37 273.7" fill="#ff8ba7"/><path d="M 325.83 279.17 A 5.47 5.47 0 0 1  331.3 273.7 L 325.83 279.17 A 5.47 5.47 0 0 0 331.3 273.7" fill="#ff3f6d"/><rect x="347.8633904761905" y="269.6633904761905" width="8.073219047619048" height="8.073219047619048" fill="#ffffff"/><rect x="35.349379047619045" y="296.0160457142857" width="7.501241904761905" height="7.501241904761905" fill="#ffffff"/><rect x="186.22026666666667" y="290.48693333333335" width="18.559466666666665" height="18.559466666666665" fill="#ffffff"/><circle cx="200.14" cy="295.13" r="4.64" fill="#5c54e6"/><path d="M 186.22 309.04999999999995 A 9.28 9.28 0 0 1  195.5 299.77 L 195.5 309.04999999999995" fill="#ff577f"/><circle cx="273.7" cy="299.76" r="7.18" fill="#ff3867"/><rect x="35.63536761904762" y="322.36870095238095" width="6.929264761904761" height="6.929264761904761" fill="#ffffff"/><circle cx="65.165" cy="325.835" r="4.325" fill="#ff84a1"/><rect x="111.26147047619048" y="319.79480380952384" width="12.077059047619045" height="12.077059047619045" fill="#ffffff"/><path d="M 111.26 331.87 A 6.04 6.04 0 0 0 117.30000000000001 325.83 L 111.26 325.83" fill="#fff5f8"/><rect x="136.47017142857143" y="318.9368380952381" width="13.792990476190473" height="13.792990476190473" fill="#ffffff"/><circle cx="139.92" cy="322.39" r="3.45" fill="#ffa6bb"/><path d="M 136.47 325.83 A 6.9 6.9 0 0 1  143.37 332.72999999999996 L 136.47 325.83 A 6.9 6.9 0 0 0 143.37 332.72999999999996" fill="#ffbccc"/><path d="M 143.37 332.72999999999996 A 6.9 6.9 0 0 1  150.27 325.83 L 143.37 332.72999999999996 A 6.9 6.9 0 0 0 150.27 325.83" fill="#8781ed"/><rect x="161.82186666666666" y="318.2218666666667" width="15.222933333333332" height="15.222933333333332" fill="#ffffff"/><circle cx="173.235" cy="329.635" r="3.805" fill="#ff688c"/><rect x="187.88853333333333" y="318.2218666666667" width="15.222933333333332" height="15.222933333333332" fill="#ffffff"/><rect x="294.58610285714286" y="320.6527695238095" width="10.361127619047618" height="10.361127619047618" fill="#ffffff"/><path d="M 299.77 320.65 A 5.18 5.18 0 0 1  304.95 325.83 L 299.77 320.65 A 5.18 5.18 0 0 0 304.95 325.83" fill="#6860e8"/><rect x="61.416045714285715" y="348.14937904761905" width="7.501241904761905" height="7.501241904761905" fill="#ffffff"/><circle cx="67.045" cy="350.025" r="1.875" fill="#dedcfa"/><path d="M 65.17 351.9 A 3.75 3.75 0 0 1  68.92 355.65 L 65.17 351.9 A 3.75 3.75 0 0 0 68.92 355.65" fill="#aaa5f2"/><circle cx="221.565" cy="351.905" r="5.945" fill="#a6a1f1"/><path d="M 295.44 356.22999999999996 A 8.65 8.65 0 0 1  304.09 347.58 L 295.44 356.22999999999996 A 8.65 8.65 0 0 0 304.09 347.58" fill="#aca8f2"/><rect x="322.0827123809524" y="348.14937904761905" width="7.501241904761905" height="7.501241904761905" fill="#ffffff"/><path d="M 322.08 348.15 A 3.75 3.75 0 0 1  325.83 351.9 L 322.08 348.15 A 3.75 3.75 0 0 0 325.83 351.9" fill="#ff9eb5"/><path d="M 325.83 351.9 A 3.75 3.75 0 0 0 329.58 348.15 L 325.83 348.15" fill="#ff6c8f"/><path d="M 348.72 355.08000000000004 A 6.36 6.36 0 0 1  355.08000000000004 348.72 L 348.72 355.08000000000004 A 6.36 6.36 0 0 0 355.08000000000004 348.72" fill="#ffa0b6"/><rect x="10.426666666666668" y="375.36" width="5.213333333333331" height="5.213333333333331" fill="#ffffff"/><path d="M 10.43 377.97 A 2.61 2.61 0 0 0 13.04 380.58000000000004 L 13.04 377.97" fill="#ff4c77"/><rect x="61.98802285714286" y="374.7880228571429" width="6.357287619047614" height="6.357287619047614" fill="#ffffff"/><path d="M 65.17 374.79 A 3.18 3.18 0 0 1 68.35000000000001 377.97 L 65.17 377.97" fill="#6058e7"/><path d="M 217.29 382.24 A 8.55 8.55 0 0 1  225.84 373.69 L 217.29 382.24 A 8.55 8.55 0 0 0 225.84 373.69" fill="#ff96af"/></g></svg>